#!OML:ASF E:\Mandelcareful walks\Project 1\Capture day 1\Session 1\Subject1.ASF
:FULLY-SPECIFIED
:DEGREES
28
root 6.58193 15.9103 0.321583 -143.205 -86.8034 152.019
lowerback 27.9549 0.280073 -1.72398
upperback 4.93742 -0.527339 0.510005
thorax -9.92703 -0.368345 1.78923
lowerneck -20.734 -12.8272 -15.2628
upperneck 15.2587 -15.691 12.4046
head 10.5126 -6.91789 4.22003
rclavicle 4.47266e-015 7.95139e-016
rhumerus -15.9991 12.1807 -85.2298
rradius 54.343
rwrist -19.5969
rhand -11.871 -34.0425
rfingers 7.12502
rthumb 14.1813 -63.5385
lclavicle 4.47266e-015 7.95139e-016
lhumerus -19.1632 -49.2042 92.4668
lradius 54.9569
lwrist -3.06712
lhand -8.57641 -9.79093
lfingers 7.12502
lthumb 17.3542 19.4543
rfemur -27.2955 -14.253 2.27589
rtibia 34.9691
rfoot -7.8491 -13.0413
rtoes -14.9122
lfemur -36.2775 12.5043 -12.6124
ltibia 52.4668
lfoot -18.7586 4.87575
ltoes -6.16203
29
root 6.54726 15.9369 0.321279 -147.317 -86.3334 156.191
lowerback 27.5448 0.154912 -1.79641
upperback 4.84442 -0.693426 0.485837
thorax -9.8173 -0.439963 1.8564
lowerneck -20.1393 -13.2502 -15.8026
upperneck 14.7211 -16.3322 13.1562
head 10.4377 -7.19962 4.45586
rclavicle 3.06128e-014 2.29596e-014
rhumerus -16.1703 13.908 -85.952
rradius 53.5948
rwrist -19.0243
rhand -11.9998 -33.1096
rfingers 7.12502
rthumb 14.0572 -62.6142
lclavicle 3.06128e-014 2.29596e-014
lhumerus -20.9784 -52.1136 93.6429
lradius 54.1934
lwrist -3.64063
lhand -8.11264 -10.9772
lfingers 7.12502
lthumb 17.8005 18.2281
rfemur -27.0979 -13.8991 2.32344
rtibia 34.3577
rfoot -7.68168 -12.9352
rtoes -14.6071
lfemur -35.7575 12.6349 -12.5548
ltibia 51.9703
lfoot -18.8049 5.18411
ltoes -5.78454
30
root 6.5203 15.9616 0.313335 -152.848 -85.9454 161.825
lowerback 27.2698 0.0648094 -1.73634
upperback 4.62923 -0.764087 0.535264
thorax -9.91841 -0.463132 1.89907
lowerneck -19.8837 -13.5825 -15.956
upperneck 14.7493 -16.8243 13.257
head 10.5033 -7.43282 4.4203
rclavicle 1.39149e-015 1.09332e-014
rhumerus -16.7145 15.496 -86.6833
rradius 53.08
rwrist -18.3623
rhand -11.7688 -32.5271
rfingers 7.12502
rthumb 14.2798 -62.0161
lclavicle 1.39149e-015 1.09332e-014
lhumerus -23.5408 -54.8961 95.4681
lradius 53.9885
lwrist -3.58094
lhand -8.36803 -11.9877
lfingers 7.12502
lthumb 17.5547 17.2397
rfemur -26.9085 -13.2957 2.60067
rtibia 33.6785
rfoot -7.59813 -13.0464
rtoes -13.9321
lfemur -35.3349 12.8178 -12.2446
ltibia 51.4682
lfoot -18.795 5.3662
ltoes -5.71523
31
root 6.48855 15.9861 0.309688 -156.6 -85.2844 165.625
lowerback 26.8739 0.0994893 -1.9138
upperback 4.57069 -0.74935 0.589448
thorax -9.77992 -0.448455 2.0505
lowerneck -18.8871 -13.6053 -16.2589
upperneck 13.5437 -16.9437 13.9711
head 10.0266 -7.50497 4.73356
rclavicle -7.45443e-015 3.45885e-014
rhumerus -17.1386 16.8084 -87.2295
rradius 53.006
rwrist -17.6455
rhand -10.9355 -32.6451
rfingers 7.12502
rthumb 15.0826 -62.0756
lclavicle -7.45443e-015 3.45885e-014
lhumerus -25.8803 -57.2959 97.2538
lradius 54.1487
lwrist -3.2481
lhand -8.86399 -12.8957
lfingers 7.12502
lthumb 17.0774 16.3737
rfemur -26.6923 -12.698 2.70446
rtibia 32.8971
rfoot -7.46948 -13.011
rtoes -13.024
lfemur -34.7458 13.027 -12.0879
ltibia 50.9702
lfoot -18.9053 5.67494
ltoes -5.23233
32
root 6.44083 16.012 0.310978 -160.801 -84.2849 169.517
lowerback 26.5458 0.257823 -2.01336
upperback 4.75387 -0.576734 0.623838
thorax -9.41165 -0.378026 2.08042
lowerneck -19.4614 -13.9587 -16.2876
upperneck 13.6004 -17.3371 13.9454
head 10.2073 -7.66032 4.6186
rclavicle -7.95139e-015 -6.65929e-015
rhumerus -17.514 17.7839 -87.6563
rradius 53.0957
rwrist -16.8118
rhand -10.2197 -32.2711
rfingers 7.12502
rthumb 15.772 -61.6485
lclavicle -7.95139e-015 -6.65929e-015
lhumerus -27.8392 -59.5575 98.8494
lradius 54.5842
lwrist -2.78834
lhand -9.99647 -13.4423
lfingers 7.12502
lthumb 15.987 15.918
rfemur -26.1464 -11.9523 2.7753
rtibia 31.9961
rfoot -7.15102 -12.7349
rtoes -13.225
lfemur -33.5337 13.3817 -11.8558
ltibia 50.4686
lfoot -19.243 6.10925
ltoes -5.18339
33
root 6.38614 16.0402 0.312098 -165.398 -83.2451 173.609
lowerback 26.2989 0.407494 -1.86559
upperback 5.08164 -0.363749 0.648964
thorax -8.9277 -0.304237 1.94603
lowerneck -19.928 -14.2194 -16.4174
upperneck 13.5786 -17.6242 14.1134
head 10.357 -7.76022 4.61221
rclavicle -3.37934e-015 -3.8763e-015
rhumerus -17.8417 18.7494 -88.1633
rradius 53.1911
rwrist -16.0725
rhand -10.0547 -31.6275
rfingers 7.12502
rthumb 15.931 -60.9923
lclavicle -3.37934e-015 -3.8763e-015
lhumerus -29.4826 -61.3802 100.161
lradius 55.166
lwrist -2.71382
lhand -11.4462 -14.0104
lfingers 7.12502
lthumb 14.5906 15.4564
rfemur -25.3263 -11.0576 2.98917
rtibia 31.0118
rfoot -6.82277 -12.5006
rtoes -13.8395
lfemur -32.1158 13.7547 -11.4021
ltibia 49.9926
lfoot -19.5884 6.66377
ltoes -6.05192
34
root 6.33647 16.0682 0.31099 -166.662 -82.3882 174.541
lowerback 25.9362 0.503535 -1.85448
upperback 5.29473 -0.251528 0.593396
thorax -8.50973 -0.266623 1.83522
lowerneck -19.9118 -14.382 -16.7353
upperneck 13.2688 -17.8455 14.6368
head 10.3722 -7.83572 4.79349
rclavicle -3.26007e-014 1.36167e-014
rhumerus -18.3664 19.7216 -88.7694
rradius 53.3732
rwrist -15.6463
rhand -10.0315 -31.3052
rfingers 7.12502
rthumb 15.9533 -60.6682
lclavicle -3.26007e-014 1.36167e-014
lhumerus -30.7804 -62.1937 101.245
lradius 55.7077
lwrist -2.02206
lhand -13.2734 -13.6845
lfingers 7.12502
lthumb 12.8296 15.9012
rfemur -24.6115 -10.5495 2.95558
rtibia 30.0543
rfoot -6.56002 -12.1667
rtoes -13.8433
lfemur -31.0321 13.9346 -11.2779
ltibia 49.5441
lfoot -19.9277 7.22064
ltoes -6.44698
35
root 6.29203 16.0906 0.308123 -166.812 -81.6369 174.546
lowerback 25.4919 0.576371 -1.87731
upperback 5.41178 -0.166646 0.530938
thorax -8.15683 -0.234523 1.74651
lowerneck -19.648 -14.4602 -17.07
upperneck 12.8753 -17.9662 15.1311
head 10.2989 -7.88358 5.00015
rclavicle 2.13197e-014 2.48481e-015
rhumerus -18.9815 20.5091 -89.2965
rradius 53.5957
rwrist -15.2373
rhand -9.32996 -31.5723
rfingers 7.12502
rthumb 16.6288 -60.88
lclavicle 2.13197e-014 2.48481e-015
lhumerus -31.4661 -62.1312 101.884
lradius 56.2384
lwrist -0.215599
lhand -13.3633 -13.5249
lfingers 7.12502
lthumb 12.7429 16.0663
rfemur -24.1685 -10.3932 2.86655
rtibia 29.2329
rfoot -6.24718 -11.63
rtoes -13.7487
lfemur -30.1782 14.1052 -11.328
ltibia 49.1278
lfoot -20.3212 7.62558
ltoes -6.07582
36
root 6.25539 16.104 0.300612 -168.2 -80.9183 175.813
lowerback 25.193 0.66728 -1.80672
upperback 5.5072 -0.0270836 0.583614
thorax -7.90437 -0.176139 1.71709
lowerneck -19.5871 -14.4626 -17.1372
upperneck 12.6937 -17.9468 15.182
head 10.2331 -7.88024 5.03436
rclavicle -1.78906e-015 -1.88845e-015
rhumerus -19.6268 21.1536 -89.737
rradius 53.8202
rwrist -14.6301
rhand -8.31863 -32.0645
rfingers 7.12502
rthumb 17.6022 -61.2877
lclavicle -1.78906e-015 -1.88845e-015
lhumerus -31.7536 -61.6503 102.134
lradius 56.8556
lwrist 1.59807
lhand -13.3951 -13.2031
lfingers 7.12502
lthumb 12.7123 16.39
rfemur -23.932 -10.1212 3.03124
rtibia 28.6613
rfoot -5.93388 -11.2016
rtoes -14.1423
lfemur -29.4016 14.3908 -11.1345
ltibia 48.7627
lfoot -20.648 7.90589
ltoes -5.83359
37
root 6.23493 16.1145 0.285336 -169.118 -80.4277 176.692
lowerback 24.8506 0.719186 -1.84015
upperback 5.65137 0.0423456 0.729561
thorax -7.573 -0.150755 1.87209
lowerneck -20.3607 -14.6363 -16.9693
upperneck 13.2245 -18.0431 14.6134
head 10.4841 -7.9168 4.75341
rclavicle 4.44781e-014 -1.799e-014
rhumerus -20.1327 21.7496 -90.0882
rradius 54.0007
rwrist -13.7889
rhand -7.83886 -32.3862
rfingers 7.12502
rthumb 18.0639 -61.5674
lclavicle 4.44781e-014 -1.799e-014
lhumerus -31.1849 -60.7303 101.676
lradius 57.4787
lwrist 3.26691
lhand -12.3774 -12.8836
lfingers 7.12502
lthumb 13.6933 16.6459
rfemur -23.8722 -9.8438 3.22219
rtibia 28.3602
rfoot -5.79295 -10.9927
rtoes -14.5491
lfemur -28.9317 14.5361 -10.9102
ltibia 48.4542
lfoot -20.7674 8.1066
ltoes -5.73643
